<?xml version="1.0" encoding="UTF-8" standalone="no"?>
<svg
   viewBox="0 0 24 24"
   version="1.1"
   id="svg3"
   sodipodi:docname="menu-icon-options.svg"
   inkscape:version="1.4.2 (f4327f4, 2025-05-13)"
   xmlns:inkscape="http://www.inkscape.org/namespaces/inkscape"
   xmlns:sodipodi="http://sodipodi.sourceforge.net/DTD/sodipodi-0.dtd"
   xmlns="http://www.w3.org/2000/svg"
   xmlns:svg="http://www.w3.org/2000/svg">
  <sodipodi:namedview
     id="namedview3"
     pagecolor="#505050"
     bordercolor="#ffffff"
     borderopacity="1"
     inkscape:showpageshadow="0"
     inkscape:pageopacity="0"
     inkscape:pagecheckerboard="1"
     inkscape:deskcolor="#505050"
     inkscape:zoom="33.958333"
     inkscape:cx="12"
     inkscape:cy="12"
     inkscape:window-width="1920"
     inkscape:window-height="1017"
     inkscape:window-x="-8"
     inkscape:window-y="-8"
     inkscape:window-maximized="1"
     inkscape:current-layer="options-2" />
  <defs
     id="defs1">
    <style
       id="style1">.cls-1{fill:#fff;opacity:0;}.cls-2{fill:#231f20;}</style>
  </defs>
  <title
     id="title1">options-2</title>
  <g
     id="Layer_2"
     data-name="Layer 2">
    <g
       id="options-2">
      <g
         id="options-2-2"
         data-name="options-2">
        <rect
           class="cls-1"
           width="24"
           height="24"
           transform="rotate(90,12,12)"
           id="rect1"
           x="0"
           y="0"
           style="display:none" />
        <path
           class="cls-2"
           d="M19,9a3,3,0,0,0-2.82,2H3a1,1,0,0,0,0,2H16.18A3,3,0,1,0,19,9Z"
           id="path1"
           style="fill:#ffffff" />
        <path
           class="cls-2"
           d="M3,7H4.18A3,3,0,0,0,9.82,7H21a1,1,0,0,0,0-2H9.82A3,3,0,0,0,4.18,5H3A1,1,0,0,0,3,7Z"
           id="path2"
           style="fill:#ffffff" />
        <path
           class="cls-2"
           d="M21,17H13.82a3,3,0,0,0-5.64,0H3a1,1,0,0,0,0,2H8.18a3,3,0,0,0,5.64,0H21a1,1,0,0,0,0-2Z"
           id="path3"
           style="fill:#ffffff" />
      </g>
    </g>
  </g>
</svg>
